<?xml version="1.0" standalone="no"?>
<!DOCTYPE svg PUBLIC "-//W3C//DTD SVG 20010904//EN"
 "http://www.w3.org/TR/2001/REC-SVG-20010904/DTD/svg10.dtd">
<svg version="1.0" xmlns="http://www.w3.org/2000/svg"
 width="1024.000000pt" height="1024.000000pt" viewBox="0 0 1024.000000 1024.000000"
 preserveAspectRatio="xMidYMid meet">

<g transform="translate(0.000000,1024.000000) scale(0.100000,-0.100000)"
fill="#000000" stroke="none">
<path d="M0 5120 l0 -5120 5120 0 5120 0 0 5120 0 5120 -5120 0 -5120 0 0
-5120z m5560 -1327 c0 -18 59 -33 127 -33 66 0 73 -2 73 -20 0 -18 7 -20 74
-20 41 0 78 -4 81 -10 3 -5 15 -10 26 -10 10 0 19 -4 19 -10 0 -5 18 -10 40
-10 22 0 40 -4 40 -10 0 -5 9 -10 20 -10 13 0 20 -7 20 -20 0 -18 7 -20 60
-20 33 0 60 -4 60 -10 0 -5 9 -10 20 -10 11 0 20 -4 20 -10 0 -5 9 -10 20 -10
13 0 20 -7 20 -19 0 -10 9 -21 21 -24 15 -4 19 -2 15 9 -4 10 2 14 19 14 21 0
25 -5 25 -30 0 -23 4 -30 20 -30 11 0 20 -4 20 -10 0 -5 15 -10 34 -10 19 0
38 -4 41 -10 3 -5 15 -10 26 -10 10 0 19 -4 19 -10 0 -5 13 -10 29 -10 16 0
55 -13 86 -30 31 -16 63 -30 71 -30 8 0 14 -7 14 -15 0 -11 11 -15 40 -15 33
0 40 -3 40 -20 0 -17 7 -20 40 -20 36 0 40 -2 40 -25 0 -22 4 -25 40 -25 29 0
40 -4 40 -15 0 -11 11 -15 40 -15 29 0 40 -4 40 -15 0 -11 11 -15 40 -15 33 0
40 -3 40 -20 0 -17 7 -20 40 -20 33 0 40 -3 40 -20 0 -17 7 -20 40 -20 33 0
40 -3 40 -20 0 -13 7 -20 20 -20 13 0 20 -7 20 -19 0 -19 34 -31 91 -31 22 0
29 -5 29 -20 0 -17 7 -20 38 -20 42 0 82 -26 82 -54 0 -9 8 -16 19 -16 11 0
23 -4 26 -10 3 -5 21 -10 38 -11 37 -1 85 -17 55 -18 -37 -2 -16 -21 22 -21
33 0 40 -3 40 -20 0 -11 7 -20 15 -20 8 0 30 -9 50 -20 20 -11 49 -20 65 -20
23 0 30 -4 30 -20 0 -13 7 -20 20 -20 11 0 20 -3 20 -7 0 -5 45 -28 100 -53
63 -29 100 -51 100 -61 0 -21 20 -39 42 -39 28 0 78 -28 78 -44 0 -7 39 -30
86 -51 76 -34 84 -40 63 -47 -15 -6 -52 -2 -108 11 -99 23 -349 73 -801 161
-173 34 -373 73 -445 87 -91 18 -164 26 -245 27 -114 0 -117 0 -310 -61 -201
-63 -515 -151 -795 -223 -88 -23 -245 -64 -350 -92 -104 -28 -202 -53 -216
-55 -33 -6 -283 40 -614 114 -88 19 -187 41 -220 49 -109 24 -249 62 -340 93
-49 17 -102 31 -117 31 -15 0 -82 -11 -150 -24 -108 -22 -435 -83 -783 -147
-156 -28 -289 -56 -445 -90 -74 -17 -173 -39 -220 -49 -47 -11 -182 -42 -300
-69 -118 -28 -224 -51 -235 -51 -18 0 -20 5 -17 45 3 38 7 45 26 46 20 0 20 1
1 9 -18 8 -17 9 8 9 17 1 27 6 27 16 0 20 45 65 65 65 8 0 15 5 15 10 0 6 9
10 20 10 13 0 20 7 20 20 0 11 5 20 10 20 6 0 10 -4 10 -10 0 -5 5 -10 10 -10
6 0 10 7 10 15 0 18 49 64 68 65 6 0 12 5 12 10 0 6 9 10 20 10 13 0 20 7 20
20 0 13 7 20 20 20 11 0 20 5 20 10 0 6 9 10 20 10 13 0 20 7 20 20 0 13 7 20
20 20 13 0 20 7 20 20 0 13 7 20 19 20 11 0 23 5 26 10 4 6 10 8 15 5 4 -3 22
10 38 29 17 19 42 36 56 38 15 2 27 8 27 13 1 19 32 45 56 45 12 0 23 4 23 9
0 5 17 15 38 22 20 7 44 20 53 31 9 10 24 18 33 18 9 0 16 5 16 10 0 6 9 10
20 10 11 0 25 9 32 20 7 11 21 20 30 20 10 0 18 5 18 10 0 6 13 10 28 10 16 0
34 8 42 20 8 11 22 20 32 20 10 0 18 5 18 10 0 6 9 10 20 10 18 0 24 10 22 31
-1 4 4 6 11 6 51 -1 67 4 67 23 0 17 7 20 40 20 22 0 40 5 40 10 0 6 9 10 20
10 11 0 20 5 20 10 0 6 9 10 20 10 13 0 20 7 20 20 0 17 7 20 50 20 28 0 50 5
50 10 0 6 7 10 16 10 23 0 44 25 44 54 0 19 5 26 20 26 11 0 20 -4 20 -10 0
-19 28 -10 60 20 18 17 38 30 45 30 8 0 17 5 20 10 3 6 17 10 31 10 13 0 29 9
36 20 9 14 24 20 50 20 21 0 38 5 38 10 0 6 7 10 15 10 22 0 65 41 65 62 0 14
8 18 40 18 22 0 40 5 40 10 0 6 9 10 20 10 16 0 20 7 20 30 0 30 0 30 58 29
31 -1 49 -3 40 -6 -32 -8 -19 -21 15 -14 21 5 36 16 45 34 10 22 20 27 48 27
18 0 34 5 34 10 0 6 7 10 16 10 8 0 29 13 47 30 18 16 38 30 45 30 6 0 12 5
12 10 0 6 26 10 59 10 50 0 59 3 64 20 4 15 14 20 40 20 20 0 39 5 42 10 3 6
48 10 101 10 87 0 94 1 94 20 0 18 7 20 60 20 53 0 60 2 60 20 0 20 7 20 460
20 253 0 460 -3 460 -7z m-2100 -463 c0 -5 -4 -10 -10 -10 -5 0 -10 5 -10 10
0 6 5 10 10 10 6 0 10 -4 10 -10z m-120 -60 c0 -5 -4 -10 -10 -10 -5 0 -10 5
-10 10 0 6 5 10 10 10 6 0 10 -4 10 -10z m3320 -630 c0 -5 -6 -10 -14 -10 -8
0 -18 5 -21 10 -3 6 3 10 14 10 12 0 21 -4 21 -10z m-55 -28 c-10 -9 -65 -26
-200 -63 -102 -28 -141 -33 -149 -21 -4 7 5 10 22 10 16 -1 35 2 41 7 9 5 222
60 291 74 2 1 0 -3 -5 -7z m73 -23 c-2 -6 -7 -9 -10 -7 -4 2 -13 -4 -20 -14
-7 -9 -22 -18 -33 -20 -11 -2 -19 -11 -19 -20 1 -16 -59 -38 -102 -38 -26 0
-9 11 28 19 39 8 44 32 8 42 -25 6 -25 6 5 13 17 3 48 13 70 20 50 17 78 19
73 5z m114 -51 c-7 -7 -12 -8 -12 -2 0 14 12 26 19 19 2 -3 -1 -11 -7 -17z
m-311 -2 c-7 -8 -26 -18 -42 -21 -16 -4 -29 -11 -29 -16 0 -11 -67 -12 -74 0
-5 8 72 36 124 44 14 2 27 5 29 6 2 0 -2 -5 -8 -13z m224 -26 c-8 -13 7 -13
80 1 55 10 82 7 163 -17 9 -2 6 -10 -9 -25 -18 -18 -44 -25 -120 -35 -54 -7
-111 -20 -127 -28 -27 -14 -36 -14 -88 0 -32 8 -60 17 -63 19 -2 3 -10 0 -18
-6 -10 -9 -13 -8 -13 4 0 9 -10 19 -21 22 -29 9 -6 25 36 25 17 0 57 11 90 25
63 26 101 32 90 15z m-245 -30 c0 -5 -15 -9 -32 -9 l-33 1 30 8 c17 4 31 8 33
9 1 0 2 -3 2 -9z m547 -6 c-3 -3 -12 -4 -19 -1 -8 3 -5 6 6 6 11 1 17 -2 13
-5z m-2 -34 c0 -18 -72 -27 -88 -11 -8 8 -3 11 15 11 15 0 30 5 33 11 10 15
40 7 40 -11z m178 -6 c34 -9 73 -22 87 -29 l25 -14 -27 -1 c-15 0 -29 4 -33
10 -3 5 -12 7 -21 3 -8 -3 -42 0 -75 7 -52 11 -57 14 -42 26 22 17 14 17 86
-2z m-776 -15 c15 -6 75 -23 133 -38 155 -42 423 -122 440 -132 28 -16 -5 -9
-125 25 -66 19 -208 60 -315 90 -107 31 -199 58 -205 60 -23 10 46 5 72 -5z
m461 -55 c-10 -10 -23 -14 -34 -10 -16 6 -16 8 -4 16 8 6 24 10 35 10 18 0 18
-1 3 -16z m2913 -1225 c107 -108 110 -112 93 -130 -17 -19 -21 -17 -131 93
-106 105 -111 113 -96 130 9 10 18 18 20 18 2 0 53 -50 114 -111z m-76 -79
l110 -110 -220 -220 -220 -220 -112 112 -113 113 217 217 c120 120 220 218
223 218 3 0 55 -50 115 -110z m-527 -25 c6 -14 18 -25 27 -25 23 0 18 -16 -10
-28 -14 -6 -25 -18 -25 -27 0 -23 -16 -18 -28 10 -6 14 -18 25 -27 25 -23 0
-18 16 10 28 14 6 25 18 25 27 0 23 16 18 28 -10z m642 -330 c8 -25 20 -37 46
-47 19 -6 34 -15 34 -18 0 -4 -18 -14 -39 -22 -30 -12 -40 -22 -46 -47 -9 -40
-18 -39 -33 4 -10 25 -22 37 -47 47 -44 15 -44 23 0 38 25 8 37 20 47 46 15
43 24 43 38 -1z m-595 -125 c108 -109 109 -109 90 -130 l-19 -21 -113 113
c-106 105 -111 113 -96 130 9 10 19 18 22 18 4 0 56 -49 116 -110z"/>
<path d="M5880 3690 c0 -5 9 -10 21 -10 11 0 17 5 14 10 -3 6 -13 10 -21 10
-8 0 -14 -4 -14 -10z"/>
<path d="M5960 3650 c0 -5 9 -10 20 -10 11 0 20 5 20 10 0 6 -9 10 -20 10 -11
0 -20 -4 -20 -10z"/>
<path d="M6200 3570 c0 -5 9 -10 21 -10 11 0 17 5 14 10 -3 6 -13 10 -21 10
-8 0 -14 -4 -14 -10z"/>
<path d="M6825 2500 c-8 -13 15 -13 35 0 12 8 11 10 -7 10 -12 0 -25 -4 -28
-10z"/>
<path d="M6668 2494 c-4 -3 2 -14 13 -25 16 -16 26 -18 52 -11 36 9 39 26 5
28 -13 1 -32 4 -44 8 -11 3 -23 4 -26 0z"/>
<path d="M6548 2443 c7 -3 16 -2 19 1 4 3 -2 6 -13 5 -11 0 -14 -3 -6 -6z"/>
<path d="M9552 1018 c-125 -64 -272 -242 -272 -330 0 -66 60 -72 160 -15 145
81 292 301 238 355 -19 19 -79 14 -126 -10z"/>
</g>
</svg>
